<mxfile host="Electron" modified="2024-01-29T17:36:04.939Z" agent="Mozilla/5.0 (Windows NT 10.0; Win64; x64) AppleWebKit/537.36 (KHTML, like Gecko) draw.io/23.0.2 Chrome/120.0.6099.109 Electron/28.1.0 Safari/537.36" version="23.0.2" etag="GkPuHPlPdmaOOXShjAEw" type="device">
  <diagram id="ayDwTAczSEjhQfFE4G1s" name="Page-1">
    <mxGraphModel dx="1100" dy="902" grid="1" gridSize="10" guides="1" tooltips="1" connect="1" arrows="1" fold="1" page="1" pageScale="1" pageWidth="850" pageHeight="1100" background="none" math="1" shadow="0">
      <root>
        <mxCell id="0" />
        <mxCell id="1" parent="0" />
        <mxCell id="2" value="Pointwise" style="rounded=1;whiteSpace=wrap;html=1;sketch=1;curveFitting=1;jiggle=2;" parent="1" vertex="1">
          <mxGeometry x="190" y="20" width="100" height="30" as="geometry" />
        </mxCell>
        <mxCell id="3" value="Almost uniform" style="rounded=1;whiteSpace=wrap;html=1;sketch=1;curveFitting=1;jiggle=2;" parent="1" vertex="1">
          <mxGeometry x="190" y="110" width="100" height="30" as="geometry" />
        </mxCell>
        <mxCell id="5" value="Uniform" style="rounded=1;whiteSpace=wrap;html=1;sketch=1;curveFitting=1;jiggle=2;" parent="1" vertex="1">
          <mxGeometry x="20" y="110" width="100" height="30" as="geometry" />
        </mxCell>
        <mxCell id="6" value="Almost everywhere" style="rounded=1;whiteSpace=wrap;html=1;sketch=1;curveFitting=1;jiggle=2;" parent="1" vertex="1">
          <mxGeometry x="400" y="40" width="100" height="30" as="geometry" />
        </mxCell>
        <mxCell id="7" value="in measure" style="rounded=1;whiteSpace=wrap;html=1;sketch=1;curveFitting=1;jiggle=2;" parent="1" vertex="1">
          <mxGeometry x="440" y="170" width="95" height="30" as="geometry" />
        </mxCell>
        <mxCell id="8" value="in distribution" style="rounded=1;whiteSpace=wrap;html=1;sketch=1;curveFitting=1;jiggle=2;" parent="1" vertex="1">
          <mxGeometry x="572.5" y="170" width="100" height="30" as="geometry" />
        </mxCell>
        <mxCell id="9" value="" style="curved=1;endArrow=classic;html=1;exitX=1;exitY=0.5;exitDx=0;exitDy=0;entryX=0;entryY=0.5;entryDx=0;entryDy=0;sketch=1;curveFitting=1;jiggle=2;" parent="1" source="7" target="8" edge="1">
          <mxGeometry width="50" height="50" relative="1" as="geometry">
            <mxPoint x="562.5" y="200" as="sourcePoint" />
            <mxPoint x="612.5" y="150" as="targetPoint" />
            <Array as="points" />
          </mxGeometry>
        </mxCell>
        <mxCell id="10" value="" style="curved=1;endArrow=classic;html=1;exitX=1;exitY=0.5;exitDx=0;exitDy=0;entryX=0;entryY=0.5;entryDx=0;entryDy=0;sketch=1;curveFitting=1;jiggle=2;" parent="1" source="3" target="7" edge="1">
          <mxGeometry width="50" height="50" relative="1" as="geometry">
            <mxPoint x="465" y="195" as="sourcePoint" />
            <mxPoint x="540" y="195" as="targetPoint" />
            <Array as="points">
              <mxPoint x="300" y="180" />
            </Array>
          </mxGeometry>
        </mxCell>
        <mxCell id="11" value="" style="curved=1;endArrow=classic;html=1;entryX=0;entryY=0.5;entryDx=0;entryDy=0;sketch=1;curveFitting=1;jiggle=2;exitX=1;exitY=0.5;exitDx=0;exitDy=0;" parent="1" source="hGBIC6375aMF7xD0OKOi-32" target="7" edge="1">
          <mxGeometry width="50" height="50" relative="1" as="geometry">
            <mxPoint x="370" y="290" as="sourcePoint" />
            <mxPoint x="420" y="205" as="targetPoint" />
            <Array as="points">
              <mxPoint x="410" y="190" />
            </Array>
          </mxGeometry>
        </mxCell>
        <mxCell id="12" value="" style="curved=1;endArrow=classic;html=1;exitX=1;exitY=0.5;exitDx=0;exitDy=0;entryX=0;entryY=0.5;entryDx=0;entryDy=0;sketch=1;curveFitting=1;jiggle=2;" parent="1" source="2" target="6" edge="1">
          <mxGeometry width="50" height="50" relative="1" as="geometry">
            <mxPoint x="330" y="30" as="sourcePoint" />
            <mxPoint x="380" y="-20" as="targetPoint" />
            <Array as="points">
              <mxPoint x="300" y="50" />
            </Array>
          </mxGeometry>
        </mxCell>
        <mxCell id="13" value="" style="curved=1;endArrow=classic;html=1;exitX=0;exitY=0.5;exitDx=0;exitDy=0;entryX=1;entryY=0.5;entryDx=0;entryDy=0;dashed=1;sketch=1;curveFitting=1;jiggle=2;" parent="1" source="6" target="3" edge="1">
          <mxGeometry width="50" height="50" relative="1" as="geometry">
            <mxPoint x="300" y="105" as="sourcePoint" />
            <mxPoint x="370" y="135" as="targetPoint" />
            <Array as="points">
              <mxPoint x="350" y="110" />
            </Array>
          </mxGeometry>
        </mxCell>
        <mxCell id="14" value="Egorov&amp;nbsp;(Jegorow)&lt;br&gt;theorem" style="text;html=1;align=center;verticalAlign=middle;resizable=0;points=[];autosize=1;strokeColor=none;fillColor=none;sketch=1;curveFitting=1;jiggle=2;" parent="1" vertex="1">
          <mxGeometry x="350" y="90" width="120" height="40" as="geometry" />
        </mxCell>
        <mxCell id="16" value="" style="curved=1;endArrow=classic;html=1;exitX=1;exitY=0.5;exitDx=0;exitDy=0;entryX=0;entryY=0.5;entryDx=0;entryDy=0;sketch=1;curveFitting=1;jiggle=2;" parent="1" source="5" target="2" edge="1">
          <mxGeometry width="50" height="50" relative="1" as="geometry">
            <mxPoint x="130" y="135" as="sourcePoint" />
            <mxPoint x="200" y="135" as="targetPoint" />
            <Array as="points">
              <mxPoint x="150" y="60" />
            </Array>
          </mxGeometry>
        </mxCell>
        <mxCell id="17" value="" style="curved=1;endArrow=classic;html=1;exitX=1;exitY=0.5;exitDx=0;exitDy=0;entryX=0;entryY=0.5;entryDx=0;entryDy=0;sketch=1;curveFitting=1;jiggle=2;" parent="1" source="5" target="hGBIC6375aMF7xD0OKOi-29" edge="1">
          <mxGeometry width="50" height="50" relative="1" as="geometry">
            <mxPoint x="130" y="135" as="sourcePoint" />
            <mxPoint x="190" y="215" as="targetPoint" />
            <Array as="points">
              <mxPoint x="160" y="150" />
              <mxPoint x="70" y="200" />
            </Array>
          </mxGeometry>
        </mxCell>
        <mxCell id="18" value="" style="curved=1;endArrow=classic;html=1;entryX=0;entryY=0.5;entryDx=0;entryDy=0;exitX=1;exitY=0.5;exitDx=0;exitDy=0;sketch=1;curveFitting=1;jiggle=2;" parent="1" source="5" target="3" edge="1">
          <mxGeometry width="50" height="50" relative="1" as="geometry">
            <mxPoint x="120" y="160" as="sourcePoint" />
            <mxPoint x="265" y="169.17000000000002" as="targetPoint" />
            <Array as="points" />
          </mxGeometry>
        </mxCell>
        <mxCell id="hGBIC6375aMF7xD0OKOi-18" value="" style="curved=1;endArrow=classic;html=1;exitX=1;exitY=0.5;exitDx=0;exitDy=0;entryX=0;entryY=0.5;entryDx=0;entryDy=0;sketch=1;curveFitting=1;jiggle=2;" edge="1" parent="1" source="3" target="6">
          <mxGeometry width="50" height="50" relative="1" as="geometry">
            <mxPoint x="300" y="135" as="sourcePoint" />
            <mxPoint x="370" y="195" as="targetPoint" />
            <Array as="points">
              <mxPoint x="300" y="70" />
            </Array>
          </mxGeometry>
        </mxCell>
        <mxCell id="hGBIC6375aMF7xD0OKOi-20" value="1" style="text;html=1;align=center;verticalAlign=middle;resizable=0;points=[];autosize=1;strokeColor=none;fillColor=none;fontSize=16;fontFamily=Verdana;" vertex="1" parent="1">
          <mxGeometry x="125" y="45" width="30" height="30" as="geometry" />
        </mxCell>
        <mxCell id="hGBIC6375aMF7xD0OKOi-22" value="2" style="text;html=1;align=center;verticalAlign=middle;resizable=0;points=[];autosize=1;strokeColor=none;fillColor=none;fontSize=16;fontFamily=Verdana;" vertex="1" parent="1">
          <mxGeometry x="140" y="95" width="30" height="30" as="geometry" />
        </mxCell>
        <mxCell id="hGBIC6375aMF7xD0OKOi-23" value="3" style="text;html=1;align=center;verticalAlign=middle;resizable=0;points=[];autosize=1;strokeColor=none;fillColor=none;fontSize=16;fontFamily=Verdana;" vertex="1" parent="1">
          <mxGeometry x="80" y="150" width="30" height="30" as="geometry" />
        </mxCell>
        <mxCell id="hGBIC6375aMF7xD0OKOi-24" value="4" style="text;html=1;align=center;verticalAlign=middle;resizable=0;points=[];autosize=1;strokeColor=none;fillColor=none;fontSize=16;fontFamily=Verdana;" vertex="1" parent="1">
          <mxGeometry x="170" y="150" width="30" height="30" as="geometry" />
        </mxCell>
        <mxCell id="hGBIC6375aMF7xD0OKOi-25" value="5" style="text;html=1;align=center;verticalAlign=middle;resizable=0;points=[];autosize=1;strokeColor=none;fillColor=none;fontSize=16;fontFamily=Verdana;" vertex="1" parent="1">
          <mxGeometry x="300" y="15" width="30" height="30" as="geometry" />
        </mxCell>
        <mxCell id="hGBIC6375aMF7xD0OKOi-26" value="8" style="text;html=1;align=center;verticalAlign=middle;resizable=0;points=[];autosize=1;strokeColor=none;fillColor=none;fontSize=16;fontFamily=Verdana;" vertex="1" parent="1">
          <mxGeometry x="245" y="250" width="30" height="30" as="geometry" />
        </mxCell>
        <mxCell id="hGBIC6375aMF7xD0OKOi-27" value="6" style="text;html=1;align=center;verticalAlign=middle;resizable=0;points=[];autosize=1;strokeColor=none;fillColor=none;fontSize=16;fontFamily=Verdana;" vertex="1" parent="1">
          <mxGeometry x="280" y="65" width="30" height="30" as="geometry" />
        </mxCell>
        <mxCell id="hGBIC6375aMF7xD0OKOi-28" value="10" style="text;html=1;align=center;verticalAlign=middle;resizable=0;points=[];autosize=1;strokeColor=none;fillColor=none;fontSize=16;fontFamily=Verdana;" vertex="1" parent="1">
          <mxGeometry x="530" y="190" width="40" height="30" as="geometry" />
        </mxCell>
        <mxCell id="hGBIC6375aMF7xD0OKOi-29" value="$$L^{\infty}$$" style="rounded=1;whiteSpace=wrap;html=1;sketch=1;curveFitting=1;jiggle=2;" vertex="1" parent="1">
          <mxGeometry x="105" y="210" width="35" height="30" as="geometry" />
        </mxCell>
        <mxCell id="hGBIC6375aMF7xD0OKOi-30" value="$$L^{r}$$" style="rounded=1;whiteSpace=wrap;html=1;sketch=1;curveFitting=1;jiggle=2;" vertex="1" parent="1">
          <mxGeometry x="190" y="210" width="35" height="30" as="geometry" />
        </mxCell>
        <mxCell id="hGBIC6375aMF7xD0OKOi-31" value="$$L^{s}$$" style="rounded=1;whiteSpace=wrap;html=1;sketch=1;curveFitting=1;jiggle=2;" vertex="1" parent="1">
          <mxGeometry x="285" y="210" width="35" height="30" as="geometry" />
        </mxCell>
        <mxCell id="hGBIC6375aMF7xD0OKOi-32" value="$$L^{1}$$" style="rounded=1;whiteSpace=wrap;html=1;sketch=1;curveFitting=1;jiggle=2;" vertex="1" parent="1">
          <mxGeometry x="370" y="210" width="35" height="30" as="geometry" />
        </mxCell>
        <mxCell id="hGBIC6375aMF7xD0OKOi-34" value="" style="curved=1;endArrow=classic;html=1;exitX=1;exitY=0.5;exitDx=0;exitDy=0;entryX=0;entryY=0.5;entryDx=0;entryDy=0;sketch=1;curveFitting=1;jiggle=2;" edge="1" parent="1" source="hGBIC6375aMF7xD0OKOi-29" target="3">
          <mxGeometry width="50" height="50" relative="1" as="geometry">
            <mxPoint x="130" y="135" as="sourcePoint" />
            <mxPoint x="170" y="215" as="targetPoint" />
            <Array as="points">
              <mxPoint x="190" y="210" />
              <mxPoint x="160" y="130" />
            </Array>
          </mxGeometry>
        </mxCell>
        <mxCell id="hGBIC6375aMF7xD0OKOi-35" value="" style="curved=1;endArrow=classic;html=1;exitX=1;exitY=0.5;exitDx=0;exitDy=0;entryX=0;entryY=0.5;entryDx=0;entryDy=0;sketch=1;curveFitting=1;jiggle=2;dashed=1;" edge="1" parent="1" source="hGBIC6375aMF7xD0OKOi-29" target="hGBIC6375aMF7xD0OKOi-30">
          <mxGeometry width="50" height="50" relative="1" as="geometry">
            <mxPoint x="488" y="215" as="sourcePoint" />
            <mxPoint x="563" y="215" as="targetPoint" />
            <Array as="points" />
          </mxGeometry>
        </mxCell>
        <mxCell id="hGBIC6375aMF7xD0OKOi-36" value="" style="curved=1;endArrow=classic;html=1;exitX=1;exitY=0.5;exitDx=0;exitDy=0;entryX=0;entryY=0.5;entryDx=0;entryDy=0;sketch=1;curveFitting=1;jiggle=2;dashed=1;" edge="1" parent="1" source="hGBIC6375aMF7xD0OKOi-30" target="hGBIC6375aMF7xD0OKOi-31">
          <mxGeometry width="50" height="50" relative="1" as="geometry">
            <mxPoint x="185" y="235" as="sourcePoint" />
            <mxPoint x="210" y="235" as="targetPoint" />
            <Array as="points" />
          </mxGeometry>
        </mxCell>
        <mxCell id="hGBIC6375aMF7xD0OKOi-37" value="" style="curved=1;endArrow=classic;html=1;exitX=1;exitY=0.5;exitDx=0;exitDy=0;entryX=0;entryY=0.5;entryDx=0;entryDy=0;sketch=1;curveFitting=1;jiggle=2;dashed=1;" edge="1" parent="1" source="hGBIC6375aMF7xD0OKOi-31" target="hGBIC6375aMF7xD0OKOi-32">
          <mxGeometry width="50" height="50" relative="1" as="geometry">
            <mxPoint x="215" y="235" as="sourcePoint" />
            <mxPoint x="240" y="235" as="targetPoint" />
            <Array as="points" />
          </mxGeometry>
        </mxCell>
        <mxCell id="hGBIC6375aMF7xD0OKOi-38" value="$$r\geq s$$" style="text;html=1;align=center;verticalAlign=middle;resizable=0;points=[];autosize=1;strokeColor=none;fillColor=none;fontSize=20;fontFamily=Architects Daughter;" vertex="1" parent="1">
          <mxGeometry x="190" y="180" width="140" height="40" as="geometry" />
        </mxCell>
        <mxCell id="hGBIC6375aMF7xD0OKOi-40" value="7" style="text;html=1;align=center;verticalAlign=middle;resizable=0;points=[];autosize=1;strokeColor=none;fillColor=none;fontSize=16;fontFamily=Verdana;" vertex="1" parent="1">
          <mxGeometry x="330" y="140" width="30" height="30" as="geometry" />
        </mxCell>
        <mxCell id="hGBIC6375aMF7xD0OKOi-41" value="9" style="text;html=1;align=center;verticalAlign=middle;resizable=0;points=[];autosize=1;strokeColor=none;fillColor=none;fontSize=16;fontFamily=Verdana;" vertex="1" parent="1">
          <mxGeometry x="415" y="210" width="30" height="30" as="geometry" />
        </mxCell>
      </root>
    </mxGraphModel>
  </diagram>
</mxfile>
